<svg width="1021" height="527" viewBox="0 0 1021 527" fill="none" xmlns="http://www.w3.org/2000/svg">
<path d="M66 438.3L70 419.6C70.4 417.7 71.4 416.2 73.1 414.8C74.7 413.5 76.5 412.8 78.4 412.8H92.7L92.4 414.3H78C76.5 414.3 75.1 414.8 73.8 415.9C72.5 416.9 71.7 418.2 71.4 419.6L70.5 424.1H89.3L89 425.6H70.2L67.8 436.8H87.5L87.2 438.3H66Z" fill="white"/>
<path d="M97.0999 412.9H98.5999L94.5999 431.6C94.2999 433 94.4999 434.3 95.3999 435.3C96.1999 436.3 97.3999 436.8 98.8999 436.8H115L120.1 412.9H121.6L116.2 438.3H98.5999C96.6999 438.3 95.1999 437.6 94.1999 436.3C93.0999 435 92.7999 433.4 93.1999 431.5L97.0999 412.9Z" fill="white"/>
<path d="M141.5 438.3L136.5 431.2L136.2 430.8H123.7L122.1 438.3H120.6L123.6 424.1C124.3 421 125.9 418.4 128.6 416.2C131.3 414 134.1 412.9 137.2 412.9H143.8C145.7 412.9 147.1 413.6 148.1 414.9C149.1 416.2 149.4 417.8 149 419.7L148.1 424.2C147.7 426 146.7 427.6 145.1 428.9C143.5 430.2 141.8 430.9 139.9 430.9H138.1C138.8 431.9 139.9 433.5 141.6 435.9C142.2 436.8 142.8 437.6 143.3 438.4H141.5V438.3ZM137 414.4C134.3 414.4 131.8 415.4 129.5 417.3C127.2 419.2 125.8 421.5 125.2 424.2L124.1 429.4H140.4C141.8 429.4 143.2 428.9 144.4 427.9C145.6 426.9 146.4 425.6 146.7 424.2L147.6 419.7C147.9 418.3 147.7 417 146.9 416C146.1 415 145 414.5 143.5 414.5H137V414.4Z" fill="white"/>
<path d="M175.8 412.9C178.1 412.9 179.8 413.7 181.1 415.3C182.4 416.9 182.8 418.8 182.3 421.1L180.4 430.1C179.9 432.4 178.7 434.3 176.8 435.9C174.8 437.5 172.7 438.3 170.5 438.3H158.7C156.4 438.3 154.7 437.5 153.4 435.9C152.1 434.3 151.7 432.4 152.2 430.1L154.1 421.1C154.6 418.8 155.8 416.9 157.7 415.3C159.7 413.7 161.8 412.9 164 412.9H175.8ZM163.6 414.4C161.7 414.4 160 415.1 158.4 416.4C156.8 417.7 155.8 419.3 155.4 421.1L153.5 430.1C153.1 432 153.4 433.5 154.5 434.8C155.5 436.1 157 436.8 158.8 436.8H170.6C172.4 436.8 174.2 436.1 175.8 434.8C177.4 433.5 178.4 431.9 178.8 430.1L180.7 421.1C181.1 419.2 180.8 417.7 179.7 416.4C178.7 415.1 177.2 414.4 175.4 414.4H163.6Z" fill="white"/>
<path d="M206.3 412.9C208.2 412.9 209.6 413.6 210.6 414.9C211.6 416.2 211.9 417.8 211.5 419.7L210.6 424.2C210.2 426 209.2 427.6 207.6 428.9C206 430.2 204.3 430.9 202.4 430.9H186.1L184.5 438.4H183L186 424.2C186.7 421.1 188.3 418.5 191 416.3C193.7 414.1 196.5 413 199.6 413H206.3V412.9ZM199.4 414.4C196.7 414.4 194.2 415.4 191.9 417.3C189.6 419.2 188.2 421.5 187.6 424.2L186.5 429.4H202.8C204.2 429.4 205.6 428.9 206.8 427.9C208 426.9 208.8 425.6 209.1 424.2L210 419.7C210.3 418.3 210.1 417 209.3 416C208.5 415 207.4 414.5 205.9 414.5H199.4V414.4Z" fill="white"/>
<path d="M212.1 438.3L216.1 419.6C216.5 417.7 217.5 416.2 219.2 414.8C220.8 413.5 222.6 412.8 224.5 412.8H238.8L238.5 414.3H224C222.5 414.3 221.1 414.8 219.8 415.9C218.5 416.9 217.7 418.2 217.4 419.6L216.5 424.1H235.3L235 425.6H216.2L213.8 436.8H233.5L233.2 438.3H212.1Z" fill="white"/>
<path d="M265.6 427.1H241.7L239.3 438.3H237.8L240.8 424.1C241.5 421 243.1 418.4 245.8 416.2C248.5 414 251.3 412.9 254.4 412.9H263.4C265.3 412.9 266.7 413.6 267.7 414.9C268.7 416.2 269.1 417.8 268.7 419.7L264.7 438.4H263.2L265.6 427.1ZM242 425.6H265.9L267.2 419.6C267.5 418.2 267.3 416.9 266.5 415.9C265.7 414.9 264.6 414.4 263.1 414.4H254.1C251.4 414.4 248.9 415.4 246.6 417.3C244.3 419.2 242.9 421.5 242.3 424.2L242 425.6Z" fill="white"/>
<path d="M270.7 438.3H269.2L272.2 424.1C272.9 421 274.5 418.4 277.3 416.2C280 414 282.9 412.9 286.1 412.9H292.2C294.1 412.9 295.6 413.6 296.6 414.9C297.7 416.2 298 417.8 297.6 419.7L293.6 438.4H292.1L296.1 419.7C296.4 418.3 296.2 417 295.3 416C294.5 415 293.3 414.4 291.8 414.4H285.7C283 414.4 280.4 415.4 278 417.3C275.6 419.2 274.2 421.5 273.6 424.2L270.7 438.3Z" fill="white"/>
<path d="M313.1 438.3L313.4 436.8H334.7L336.3 429.3H320.2C318.3 429.3 316.8 428.6 315.8 427.3C314.7 426 314.4 424.4 314.8 422.5L316.9 412.8H318.4L316.3 422.5C316 423.9 316.3 425.2 317.1 426.2C317.9 427.2 319.1 427.7 320.6 427.7H336.7L339.9 412.8H341.4L336 438.2H313.1V438.3Z" fill="white"/>
<path d="M365.9 412.9C368.2 412.9 369.9 413.7 371.2 415.3C372.5 416.9 372.9 418.8 372.4 421.1L370.5 430.1C370 432.4 368.8 434.3 366.9 435.9C364.9 437.5 362.8 438.3 360.6 438.3H348.8C346.5 438.3 344.8 437.5 343.5 435.9C342.2 434.3 341.8 432.4 342.3 430.1L344.2 421.1C344.7 418.8 345.9 416.9 347.8 415.3C349.8 413.7 351.9 412.9 354.1 412.9H365.9ZM353.8 414.4C351.9 414.4 350.2 415.1 348.6 416.4C347 417.7 346 419.3 345.6 421.1L343.7 430.1C343.3 432 343.6 433.5 344.7 434.8C345.7 436.1 347.2 436.8 349 436.8H360.8C362.6 436.8 364.4 436.1 366 434.8C367.6 433.5 368.6 431.9 369 430.1L370.9 421.1C371.3 419.2 371 417.7 369.9 416.4C368.9 415.1 367.4 414.4 365.6 414.4H353.8Z" fill="white"/>
<path d="M374.9 438.3L375.2 436.8H396.5L398.1 429.3H382C380.1 429.3 378.6 428.6 377.6 427.3C376.5 426 376.2 424.4 376.6 422.5L378.7 412.8H380.2L378.1 422.5C377.8 423.9 378.1 425.2 378.9 426.2C379.7 427.2 380.9 427.7 382.4 427.7H398.5L401.7 412.8H403.2L397.8 438.2H374.9V438.3Z" fill="white"/>
<path d="M427.7 412.9C430 412.9 431.7 413.7 433 415.3C434.3 416.9 434.7 418.8 434.2 421.1L432.3 430.1C431.8 432.4 430.6 434.3 428.7 435.9C426.7 437.5 424.6 438.3 422.4 438.3H410.6C408.3 438.3 406.6 437.5 405.3 435.9C404 434.3 403.6 432.4 404.1 430.1L406 421.1C406.5 418.8 407.7 416.9 409.6 415.3C411.6 413.7 413.7 412.9 415.9 412.9H427.7ZM415.5 414.4C413.6 414.4 411.9 415.1 410.3 416.4C408.7 417.7 407.7 419.3 407.3 421.1L405.4 430.1C405 432 405.3 433.5 406.4 434.8C407.4 436.1 408.9 436.8 410.7 436.8H422.5C424.3 436.8 426.1 436.1 427.7 434.8C429.3 433.5 430.3 431.9 430.7 430.1L432.6 421.1C433 419.2 432.7 417.7 431.6 416.4C430.6 415.1 429.1 414.4 427.3 414.4H415.5Z" fill="white"/>
<path d="M53.3 479.2L53 480.7H31.9C30.3 480.7 29.1 480.2 28.1 479.2C27.2 478.2 26.8 476.9 27.2 475.5L29.1 466.6C29.8 463.5 31.6 460.8 34.5 458.7C37.4 456.5 40.6 455.4 44.1 455.4H58.4L58.1 456.9H43.8C40.7 456.9 37.9 457.9 35.3 459.8C32.7 461.7 31.2 464 30.6 466.6L28.7 475.5C28.5 476.5 28.7 477.4 29.4 478.1C30.1 478.8 31.1 479.2 32.3 479.2H53.3Z" fill="white"/>
<path d="M81.9999 480.7H80.4999L83.9999 464.3H72.3999C69.6999 464.3 67.0999 465.2 64.6999 467.1C62.3999 469 60.8999 471.3 60.2999 474L58.8999 480.7H57.3999L62.7999 455.3H64.2999L61.4999 468.5C62.1999 467.6 62.9999 466.8 63.8999 466.1C66.5999 463.9 69.4999 462.8 72.6999 462.8H84.1999L85.7999 455.3H87.2999L81.9999 480.7Z" fill="white"/>
<path d="M114.2 469.5H90.2999L87.8999 480.7H86.3999L89.3999 466.5C90.0999 463.4 91.6999 460.8 94.3999 458.6C97.0999 456.4 99.8999 455.3 103 455.3H112C113.9 455.3 115.3 456 116.3 457.3C117.3 458.6 117.7 460.2 117.3 462.1L113.3 480.8H111.8L114.2 469.5ZM90.5999 468H114.5L115.8 462C116.1 460.6 115.9 459.3 115.1 458.3C114.3 457.3 113.2 456.8 111.7 456.8H102.7C99.9999 456.8 97.4999 457.8 95.1999 459.7C92.8999 461.6 91.4999 463.9 90.8999 466.6L90.5999 468Z" fill="white"/>
<path d="M144.3 458.5C147 456.3 149.9 455.2 153.1 455.2H154.6C156.5 455.2 158 455.9 159 457.2C160.1 458.5 160.4 460.1 160 462L156 480.7H154.5L158.5 462C158.8 460.6 158.6 459.3 157.7 458.3C156.9 457.3 155.7 456.7 154.2 456.7H152.7C149.9 456.7 147.4 457.7 145 459.6C142.6 461.5 141.2 463.8 140.6 466.5L137.6 480.7H136.1L140.1 462C140.4 460.6 140.1 459.3 139.3 458.3C138.5 457.3 137.3 456.7 135.8 456.7H134.3C131.6 456.7 129 457.7 126.6 459.6C124.2 461.5 122.8 463.8 122.2 466.5L119.2 480.7H117.7L120.7 466.5C121.4 463.4 123 460.8 125.8 458.6C128.5 456.4 131.4 455.3 134.6 455.3H136.1C138 455.3 139.5 456 140.5 457.3C141.4 458.4 141.8 459.7 141.7 461.1C142.5 460.1 143.4 459.3 144.3 458.5Z" fill="white"/>
<path d="M183.8 455.3C185.7 455.3 187.1 456 188.1 457.3C189.1 458.6 189.4 460.2 189 462.1L188.1 466.6C187.7 468.4 186.7 470 185.1 471.3C183.5 472.6 181.8 473.3 179.9 473.3H163.6L162 480.8H160.5L163.5 466.6C164.2 463.5 165.8 460.9 168.5 458.7C171.2 456.5 174 455.4 177.1 455.4H183.8V455.3ZM176.9 456.7C174.2 456.7 171.7 457.7 169.4 459.6C167.1 461.5 165.7 463.8 165.1 466.5L164 471.7H180.3C181.7 471.7 183.1 471.2 184.3 470.2C185.5 469.2 186.3 467.9 186.6 466.5L187.5 462C187.8 460.6 187.6 459.3 186.8 458.3C186 457.3 184.9 456.8 183.4 456.8H176.9V456.7Z" fill="white"/>
<path d="M192.8 480.7H191.3L196.7 455.3H198.2L192.8 480.7Z" fill="white"/>
<path d="M224.5 455.3C226.8 455.3 228.5 456.1 229.8 457.7C231.1 459.3 231.5 461.2 231 463.5L229.1 472.5C228.6 474.8 227.4 476.7 225.5 478.3C223.5 479.9 221.4 480.7 219.2 480.7H207.4C205.1 480.7 203.4 479.9 202.1 478.3C200.8 476.7 200.4 474.8 200.9 472.5L202.8 463.5C203.3 461.2 204.5 459.3 206.4 457.7C208.4 456.1 210.5 455.3 212.7 455.3H224.5ZM212.3 456.7C210.4 456.7 208.7 457.4 207.1 458.7C205.5 460 204.5 461.6 204.1 463.4L202.2 472.4C201.8 474.3 202.1 475.8 203.2 477.1C204.2 478.4 205.7 479.1 207.5 479.1H219.3C221.1 479.1 222.9 478.4 224.5 477.1C226.1 475.8 227.1 474.2 227.5 472.4L229.4 463.4C229.8 461.5 229.5 460 228.4 458.7C227.4 457.4 225.9 456.7 224.1 456.7H212.3Z" fill="white"/>
<path d="M233.3 480.7H231.8L234.8 466.5C235.5 463.4 237.1 460.8 239.9 458.6C242.6 456.4 245.5 455.3 248.7 455.3H254.8C256.7 455.3 258.2 456 259.2 457.3C260.3 458.6 260.6 460.2 260.2 462.1L256.2 480.8H254.7L258.7 462.1C259 460.7 258.8 459.4 257.9 458.4C257.1 457.4 255.9 456.8 254.4 456.8H248.3C245.6 456.8 243 457.8 240.6 459.7C238.2 461.6 236.8 463.9 236.2 466.6L233.3 480.7Z" fill="white"/>
<path d="M290.1 455.3L289.8 456.8H272.6C271.2 456.8 269.8 457.3 268.6 458.3C267.4 459.3 266.6 460.6 266.3 462C266 463.4 266.2 464.5 267 465.5C267.8 466.5 268.9 467.1 270.4 467.2H282.3C284.1 467.2 285.6 467.9 286.6 469.2C287.6 470.5 287.9 472.1 287.5 474L286.9 477C286.7 478 286.1 478.9 285.3 479.6C284.4 480.3 283.4 480.7 282.4 480.7H260.7L261 479.2H282.7C283.3 479.2 283.9 479 284.4 478.5C284.9 478.1 285.3 477.5 285.4 476.9L286 473.9C286.3 472.5 286 471.2 285.2 470.2C284.4 469.2 283.3 468.7 281.8 468.7H270H269.9C268 468.6 266.6 467.8 265.6 466.6C264.6 465.3 264.3 463.8 264.7 462C265.1 460.1 266.1 458.6 267.7 457.2C269.3 455.9 271 455.2 272.9 455.2H290.1V455.3Z" fill="white"/>
<path d="M315.2 480.7H313.7L317.2 464.3H305.7C303 464.3 300.4 465.2 298 467.1C295.7 469 294.2 471.3 293.6 474L292.2 480.7H290.7L296.1 455.3H297.6L294.8 468.5C295.5 467.6 296.3 466.8 297.2 466.1C299.9 463.9 302.8 462.8 306 462.8H317.5L319.1 455.3H320.6L315.2 480.7Z" fill="white"/>
<path d="M322.9 480.7H321.4L326.8 455.3H328.3L322.9 480.7Z" fill="white"/>
<path d="M352.3 455.3C354.2 455.3 355.6 456 356.6 457.3C357.6 458.6 357.9 460.2 357.5 462.1L356.6 466.6C356.2 468.4 355.2 470 353.6 471.3C352 472.6 350.3 473.3 348.4 473.3H332.1L330.5 480.8H329L332 466.6C332.7 463.5 334.3 460.9 337 458.7C339.7 456.5 342.5 455.4 345.6 455.4H352.3V455.3ZM345.4 456.7C342.7 456.7 340.2 457.7 337.9 459.6C335.6 461.5 334.2 463.8 333.6 466.5L332.5 471.7H348.8C350.2 471.7 351.6 471.2 352.8 470.2C354 469.2 354.8 467.9 355.1 466.5L356 462C356.3 460.6 356.1 459.3 355.3 458.3C354.5 457.3 353.4 456.8 351.9 456.8H345.4V456.7Z" fill="white"/>
<path d="M616.5 71.6L616.2 73.1H599C597.6 73.1 596.2 73.6 595 74.6C593.8 75.6 593 76.9 592.7 78.3C592.4 79.7 592.6 80.8 593.4 81.8C594.2 82.8 595.3 83.4 596.8 83.5H608.7C610.5 83.5 612 84.2 613 85.5C614 86.8 614.3 88.4 613.9 90.3L613.3 93.3C613.1 94.3 612.5 95.2 611.7 95.9C610.8 96.6 609.8 97 608.8 97H587.1L587.4 95.5H609.1C609.7 95.5 610.3 95.3 610.8 94.8C611.3 94.4 611.7 93.8 611.8 93.2L612.4 90.2C612.7 88.8 612.4 87.5 611.6 86.5C610.8 85.5 609.7 85 608.2 85H596.3H596.2C594.3 84.9 592.9 84.1 591.9 82.9C590.9 81.6 590.6 80.1 591 78.3C591.4 76.4 592.4 74.9 594 73.5C595.6 72.2 597.3 71.5 599.2 71.5H616.5V71.6Z" fill="white"/>
<path d="M635.6 95.5L635.3 97H624C622.1 97 620.6 96.3 619.6 95C618.5 93.7 618.2 92.1 618.6 90.2L622.6 71.5H624.1L620.1 90.2C619.8 91.6 620 92.9 620.9 93.9C621.7 94.9 622.9 95.4 624.4 95.4H635.6V95.5Z" fill="white"/>
<path d="M663.5 71.6001C665.8 71.6001 667.5 72.4001 668.8 74.0001C670.1 75.6001 670.5 77.5001 670 79.8001L668.1 88.8001C667.6 91.1001 666.4 93.0001 664.5 94.6001C662.5 96.2001 660.4 97.0001 658.2 97.0001H646.4C644.1 97.0001 642.4 96.2001 641.1 94.6001C639.8 93.0001 639.4 91.1001 639.9 88.8001L641.8 79.8001C642.3 77.5001 643.5 75.6001 645.4 74.0001C647.4 72.4001 649.5 71.6001 651.7 71.6001H663.5ZM651.3 73.0001C649.4 73.0001 647.7 73.7001 646.1 75.0001C644.5 76.3001 643.5 77.9001 643.1 79.7001L641.2 88.7001C640.8 90.6001 641.1 92.1001 642.2 93.4001C643.2 94.7001 644.7 95.4001 646.5 95.4001H658.3C660.1 95.4001 661.9 94.7001 663.5 93.4001C665.1 92.1001 666.1 90.5001 666.5 88.7001L668.4 79.7001C668.8 77.8001 668.5 76.3001 667.4 75.0001C666.4 73.7001 664.9 73.0001 663.1 73.0001H651.3Z" fill="white"/>
<path d="M702.5 71.6001L687.1 94.3001C686.5 95.1001 685.9 95.8001 685.2 96.2001C684.5 96.7001 683.7 96.9001 683 96.9001C682.2 96.9001 681.6 96.7001 681.1 96.2001C680.6 95.7001 680.3 95.1001 680 94.3001L674.3 71.6001H676L681.6 93.7001C681.7 94.3001 682 94.8001 682.3 95.1001C682.6 95.4001 682.9 95.5001 683.4 95.5001C683.8 95.5001 684.2 95.4001 684.7 95.1001C685.1 94.8001 685.6 94.3001 686 93.7001L701 71.6001H702.5Z" fill="white"/>
<path d="M727.5 85.8001H703.6L701.2 97.0001H699.7L702.7 82.8001C703.4 79.7001 705 77.1001 707.7 74.9001C710.4 72.7001 713.2 71.6001 716.3 71.6001H725.3C727.2 71.6001 728.6 72.3001 729.6 73.6001C730.6 74.9001 731 76.5001 730.6 78.4001L726.6 97.1001H725.1L727.5 85.8001ZM703.9 84.3001H727.8L729.1 78.3001C729.4 76.9001 729.2 75.6001 728.4 74.6001C727.6 73.6001 726.5 73.1001 725 73.1001H716C713.3 73.1001 710.8 74.1001 708.5 76.0001C706.2 77.9001 704.8 80.2001 704.2 82.9001L703.9 84.3001Z" fill="white"/>
<path d="M740.299 82.1L740.9 81.8C741.1 81.7 741.3 81.6 741.5 81.5C743.4 80.5 746.6 78.8 750.9 76.4C755 74.2 758.099 72.5 760.299 71.3L760.799 72.6L746.5 80.3H752.2C754.1 80.3 755.6 81.3 756.5 83.2C757.4 85 757.6 87.2 757 89.8L755.4 97.1H753.9L755.5 89.8C756 87.6 755.799 85.7 755.099 84.1C754.399 82.6 753.3 81.9 751.9 81.9H745.799C743.099 81.9 740.5 83.3 737.9 86.1C735.3 89 733.6 92.4 732.7 96.4L732.5 97.2H731L736.4 71.8H737.9L734.299 88.6C735.099 87.4 735.899 86.3 736.799 85.3C737.999 83.8 739.099 82.9 740.299 82.1Z" fill="white"/>
<path d="M763.399 97.0001H761.899L767.299 71.6001H768.799L763.399 97.0001Z" fill="white"/>
<path d="M797.4 85.8001H773.5L771.1 97.0001H769.6L772.6 82.8001C773.3 79.7001 774.9 77.1001 777.6 74.9001C780.3 72.7001 783.1 71.6001 786.2 71.6001H795.2C797.1 71.6001 798.5 72.3001 799.5 73.6001C800.5 74.9001 800.9 76.5001 800.5 78.4001L796.5 97.1001H795L797.4 85.8001ZM773.8 84.3001H797.7L799 78.3001C799.3 76.9001 799.1 75.6001 798.3 74.6001C797.5 73.6001 796.4 73.1001 794.9 73.1001H785.9C783.2 73.1001 780.7 74.1001 778.4 76.0001C776.1 77.9001 774.7 80.2001 774.1 82.9001L773.8 84.3001Z" fill="white"/>
<path d="M819.599 76.5L820.7 71.4H840.099C841.599 71.4 842.799 71.9 843.599 73C844.399 74.1 844.7 75.4 844.4 76.8L843.5 80.9C843.2 82.4 842.399 83.7 841.099 84.7C839.799 85.8 838.4 86.3 836.9 86.3H821.9C821.8 86.3 821.6 86.3 821.5 86.4C821.4 86.5 821.299 86.6 821.299 86.8L820.2 91.8H841.099L840 96.9C839.2 96.9 830.6 96.9 814 96.9L816.2 86.8C816.5 85.3 817.3 83.9 818.7 82.9C820 81.8 821.5 81.2 823 81.2H838C838.1 81.2 838.2 81.2 838.2 81.1C838.3 81 838.3 81 838.4 80.9L839.299 76.8C839.299 76.7 839.3 76.6 839.2 76.6C839.2 76.5 839.1 76.5 839 76.5H819.599Z" fill="#66C5FF"/>
<path d="M866.599 71.4C868.899 71.4 870.699 72.2 871.999 73.9C873.299 75.6 873.699 77.5 873.199 79.8L871.399 88.5C870.899 90.8 869.699 92.8 867.699 94.5C865.699 96.2 863.499 97 861.199 97H852.699C850.399 97 848.599 96.2 847.299 94.5C845.999 92.8 845.599 90.9 846.099 88.5L847.899 79.8C848.399 77.5 849.599 75.5 851.699 73.9C853.699 72.2 855.899 71.4 858.199 71.4H866.599ZM857.099 76.5C856.199 76.5 855.299 76.8 854.499 77.5C853.699 78.2 853.199 78.9 852.999 79.8L851.199 88.5C850.999 89.4 851.199 90.2 851.699 90.8C852.199 91.5 852.899 91.8 853.899 91.8H862.399C863.299 91.8 864.199 91.5 864.999 90.8C865.799 90.2 866.299 89.4 866.499 88.5L868.299 79.8C868.499 78.9 868.299 78.1 867.799 77.5C867.299 76.9 866.599 76.5 865.699 76.5H857.099Z" fill="#66C5FF"/>
<path d="M879.3 76.5L880.4 71.4H899.8C901.3 71.4 902.5 71.9 903.3 73C904.1 74.1 904.4 75.4 904.1 76.8L903.2 80.9C902.9 82.4 902.1 83.7 900.8 84.7C899.5 85.8 898.1 86.3 896.6 86.3H881.6C881.5 86.3 881.3 86.3 881.2 86.4C881.1 86.5 881 86.6 881 86.8L879.9 91.8H900.8L899.7 96.9C898.9 96.9 890.3 96.9 873.7 96.9L875.9 86.8C876.2 85.3 877 83.9 878.4 82.9C879.7 81.8 881.2 81.2 882.7 81.2H897.7C897.8 81.2 897.9 81.2 897.9 81.1C898 81 898 81 898.1 80.9L899 76.8C899 76.7 899 76.6 898.9 76.6C898.9 76.5 898.8 76.5 898.7 76.5H879.3Z" fill="#66C5FF"/>
<path d="M903.899 97.0001L904.999 91.9001H925.599C925.699 91.9001 925.799 91.9001 925.799 91.8001C925.899 91.7001 925.899 91.7001 925.999 91.6001L926.999 86.8001C926.999 86.7001 926.999 86.6001 926.899 86.6001C926.899 86.5001 926.799 86.5001 926.699 86.5001H906.099L909.299 71.6001C924.199 71.6001 932.899 71.6001 935.299 71.6001L934.199 76.7001H913.299L912.299 81.4001H927.799C929.299 81.4001 930.499 81.9001 931.299 83.0001C932.099 84.1001 932.399 85.4001 932.099 86.8001L931.099 91.6001C930.799 93.1001 929.999 94.4001 928.699 95.4001C927.399 96.5001 925.999 97.0001 924.499 97.0001H903.899Z" fill="#66C5FF"/>
<path d="M715.9 379.1L691.8 337.1L534.7 441.1L689.1 175.4C697.1 161.7 694.5 144.7 682.8 134C671.1 123.3 653.9 122.2 641 131.3L405.1 296.9L544.8 49.9C552.3 36.6 549.9 19.9 538.9 9.30003C527.9 -1.29997 511.1 -3.09997 497.7 5.20003L304.9 130.3L329.7 173.3L469.2 82.8L326.7 334.8C318.9 348.5 321.7 365.5 333.3 376C345 386.6 362.1 387.7 375 378.6L609.2 214.1L457.1 475.9C449.1 489.6 451.7 506.6 463.4 517.4C469.8 523.3 477.9 526.2 486 526.2C492.5 526.2 499.1 524.2 504.9 520.3L716.7 380.2C716.4 379.8 716.2 379.5 715.9 379.1Z" fill="white"/>
<path d="M1018.6 204.3L980 137.3C977.1 132.3 971.2 128.9 965.3 128.9H801.3C788.7 128.9 777.1 135.6 770.9 146.5L766.5 154.2C764.5 157.8 764.5 162.1 766.5 165.7L787.8 202.7C790.4 207.2 787.2 212.8 782 212.8H739.5C735.4 212.8 731.6 215 729.5 218.6L689.5 288.3C686.6 293.3 686.6 300 689.5 305.1L728.1 372.1C731 377.1 736.9 380.5 742.8 380.5H917.1C923 380.5 928.4 377.2 931.3 372.1L979.9 288.3C982 284.5 979.1 279.9 974.9 279.9H892.8C889.9 279.9 887.4 281.6 885.7 284.1L851.8 342.8C850.1 345.3 847.6 347 844.7 347H762.2C758 347 755.5 342.4 757.6 338.6L856.5 166.8C858.2 164.3 861.1 162.6 864 162.6H946.1C950.3 162.6 953.2 167.2 951.1 171L912.1 238C910 241.8 912.9 246.4 917.1 246.4H999.2C1002.1 246.4 1004.6 244.7 1006.3 242.2L1018.4 221.2C1021.5 216.1 1021.5 209.4 1018.6 204.3Z" fill="#66C5FF"/>
<path d="M331.1 204.3L292.6 137.3C289.7 132.3 283.8 128.9 277.9 128.9H113.9C113.3 128.9 112.6 128.9 112 129H111.8C111.4 129 111 129.1 110.7 129.1C110.6 129.1 110.5 129.1 110.4 129.1C110.1 129.1 109.7 129.2 109.4 129.2C109.3 129.2 109.3 129.2 109.2 129.2C108.8 129.3 108.3 129.3 107.9 129.4C107.2 129.5 106.6 129.6 106 129.8C104.8 130.1 103.7 130.4 102.5 130.8C102.3 130.9 102.1 130.9 101.8 131C101.3 131.2 100.8 131.4 100.3 131.6C99.7999 131.8 99.3999 132 98.9999 132.2C98.8999 132.3 98.6999 132.3 98.5999 132.4C98.4999 132.5 98.3999 132.5 98.2999 132.6C97.9999 132.8 97.5999 132.9 97.2999 133.1C96.9999 133.3 96.5999 133.5 96.2999 133.7C95.5999 134.1 94.9999 134.5 94.3999 134.9C93.7999 135.3 93.0999 135.8 92.4999 136.2C91.8999 136.7 91.2999 137.1 90.6999 137.7C90.0999 138.2 89.5999 138.7 88.9999 139.2C87.8999 140.3 86.8999 141.4 85.9999 142.7C85.4999 143.3 85.0999 143.9 84.6999 144.6C84.2999 145.2 83.8999 145.9 83.4999 146.6L79.0999 154.3C77.0999 157.8 77.0999 162.2 79.0999 165.7L100.4 202.7C103 207.2 99.6999 212.8 94.5999 212.8H52.0999C47.9999 212.8 44.1999 215 42.1999 218.5L2.1999 288.2C-0.700098 293.2 -0.700098 299.9 2.1999 305L40.6999 372C43.5999 377 49.4999 380.4 55.3999 380.4H229.7C235.6 380.4 241 377.1 244 372L292.6 288.2C294.7 284.4 291.8 279.8 287.6 279.8H205.5C202.6 279.8 200.1 281.5 198.4 284L164.5 342.7C162.8 345.2 160.3 346.9 157.4 346.9H74.6999C70.4999 346.9 67.9999 342.3 70.0999 338.5L120.8 250.5C122 248 125 246.3 127.9 246.3H229.7H311.8C313.3 246.3 314.6 245.9 315.8 245.2C316.4 244.8 317 244.4 317.5 243.9C318 243.4 318.5 242.8 318.9 242.2L331.1 221.3C334.1 216.1 334.1 209.4 331.1 204.3ZM263.7 170.8L241.3 209.3C239.6 211.4 237 212.7 234.3 212.7H152.2C148.2 212.7 145.4 208.6 146.9 205L169 166.6C169.5 165.8 170.1 165.1 170.9 164.6C172 163.8 173.3 163.1 174.6 162.7C174.8 162.6 175 162.6 175.2 162.6C175.3 162.6 175.4 162.6 175.4 162.6C175.8 162.5 176.1 162.5 176.5 162.5H258.6C259.4 162.5 260.2 162.7 260.9 163C261.1 163.1 261.2 163.1 261.4 163.3C261.6 163.4 261.7 163.5 261.9 163.6C262.1 163.7 262.2 163.8 262.3 163.9C262.4 164 262.6 164.1 262.7 164.3C263.4 165 263.9 165.9 264.1 166.8C264.2 166.9 264.2 167.1 264.2 167.3C264.2 167.4 264.3 167.6 264.3 167.7C264.3 167.9 264.3 168.1 264.3 168.3C264.4 169.1 264.1 170 263.7 170.8Z" fill="#66C5FF"/>
</svg>
